<svg width="49" height="49" viewBox="0 0 49 49" fill="none" xmlns="http://www.w3.org/2000/svg">
<mask id="mask0_1712_461" style="mask-type:alpha" maskUnits="userSpaceOnUse" x="0" y="0" width="49" height="49">
<rect x="0.874023" y="0.574219" width="48" height="48" fill="#D9D9D9"/>
</mask>
<g mask="url(#mask0_1712_461)">
<path d="M25.674 24.1242V8.07422C25.674 7.64922 25.8179 7.29289 26.1055 7.00522C26.3929 6.71789 26.749 6.57422 27.174 6.57422H41.374C41.799 6.57422 42.1554 6.71789 42.443 7.00522C42.7304 7.29289 42.874 7.64922 42.874 8.07422V17.6742C42.874 18.0992 42.7304 18.4554 42.443 18.7427C42.1554 19.0304 41.799 19.1742 41.374 19.1742H30.874L25.674 24.1242ZM28.674 16.1742H39.874V9.57422H28.674V16.1742ZM40.624 42.5742C36.7574 42.5742 32.8157 41.6409 28.799 39.7742C24.7824 37.9076 21.0574 35.2576 17.624 31.8242C14.1907 28.3909 11.5407 24.6659 9.67402 20.6492C7.80736 16.6326 6.87402 12.6909 6.87402 8.82422C6.87402 8.18122 7.08836 7.64555 7.51702 7.21722C7.94536 6.78855 8.48102 6.57422 9.12402 6.57422H16.124C16.5907 6.57422 16.9907 6.74089 17.324 7.07422C17.6574 7.40755 17.8907 7.82422 18.024 8.32422L19.3705 14.6062C19.4395 15.0849 19.4324 15.5159 19.349 15.8992C19.2657 16.2826 19.0869 16.6114 18.8125 16.8857L13.824 21.9242C14.6907 23.3909 15.6074 24.7576 16.574 26.0242C17.5407 27.2909 18.6074 28.4909 19.774 29.6242C21.0074 30.8909 22.3074 32.0492 23.674 33.0992C25.0407 34.1492 26.474 35.0742 27.974 35.8742L32.724 30.9742C33.0574 30.6076 33.4432 30.3576 33.8815 30.2242C34.3199 30.0909 34.7507 30.0576 35.174 30.1242L41.124 31.4242C41.624 31.5576 42.0407 31.8249 42.374 32.2262C42.7074 32.6279 42.874 33.0772 42.874 33.5742V40.3242C42.874 40.9672 42.6597 41.5029 42.231 41.9312C41.8027 42.3599 41.267 42.5742 40.624 42.5742ZM12.324 19.1742L16.374 15.0742L15.224 9.57422H9.87402C9.94069 10.9742 10.1657 12.4492 10.549 13.9992C10.9324 15.5492 11.524 17.2742 12.324 19.1742ZM30.774 37.3242C32.1407 37.9576 33.624 38.4742 35.224 38.8742C36.824 39.2742 38.374 39.5076 39.874 39.5742V34.2242L34.724 33.1742L30.774 37.3242Z" fill="#000000"/>
</g>
</svg>
