<svg width="41" height="41" viewBox="0 0 41 41" fill="none" xmlns="http://www.w3.org/2000/svg">
<mask id="mask0_1017_459" style="mask-type:alpha" maskUnits="userSpaceOnUse" x="0" y="0" width="41" height="41">
<rect x="0.157227" y="0.201904" width="40" height="40" fill="#D9D9D9"/>
</mask>
<g mask="url(#mask0_1017_459)">
<path d="M18.4907 35.2019V32.4242H32.3796V20.0352C32.3796 16.6614 31.1938 13.7995 28.8221 11.4493C26.4504 9.09918 23.5622 7.92411 20.1574 7.92411C16.7526 7.92411 13.8644 9.09918 11.4927 11.4493C9.12099 13.7995 7.93514 16.6614 7.93514 20.0352V30.2019H6.82406C5.90739 30.2019 5.12267 29.8755 4.46989 29.2227C3.81711 28.57 3.49072 27.7852 3.49072 26.8686V23.5352C3.49072 22.9519 3.63656 22.4033 3.92822 21.8894C4.21989 21.3755 4.62961 20.9658 5.15739 20.6602L5.28239 18.4519C5.50461 16.563 6.05322 14.813 6.92822 13.2019C7.80322 11.5908 8.90045 10.188 10.2199 8.99357C11.5393 7.79913 13.0532 6.86857 14.7616 6.2019C16.4699 5.53524 18.2685 5.2019 20.1574 5.2019C22.0463 5.2019 23.8379 5.53524 25.5324 6.2019C27.2268 6.86857 28.7407 7.79218 30.0741 8.97274C31.4074 10.1533 32.5046 11.5491 33.3657 13.1602C34.2268 14.7713 34.7824 16.5213 35.0324 18.4102L35.1574 20.5769C35.6852 20.8269 36.0949 21.2019 36.3866 21.7019C36.6782 22.2019 36.8241 22.7297 36.8241 23.2852V27.1186C36.8241 27.6741 36.6782 28.2019 36.3866 28.7019C36.0949 29.2019 35.6852 29.5769 35.1574 29.8269V32.4242C35.1574 33.188 34.8854 33.842 34.3414 34.3859C33.7975 34.9299 33.1435 35.2019 32.3796 35.2019H18.4907ZM15.1525 23.2574C14.7576 23.2574 14.4282 23.1239 14.1643 22.8567C13.9005 22.5896 13.7685 22.2586 13.7685 21.8637C13.7685 21.4688 13.9021 21.1394 14.1692 20.8755C14.4364 20.6116 14.7674 20.4797 15.1623 20.4797C15.5572 20.4797 15.8865 20.6133 16.1504 20.8804C16.4143 21.1475 16.5463 21.4786 16.5463 21.8734C16.5463 22.2683 16.4127 22.5977 16.1456 22.8616C15.8784 23.1255 15.5474 23.2574 15.1525 23.2574ZM25.1525 23.2574C24.7576 23.2574 24.4282 23.1239 24.1644 22.8567C23.9005 22.5896 23.7685 22.2586 23.7685 21.8637C23.7685 21.4688 23.9021 21.1394 24.1692 20.8755C24.4364 20.6116 24.7674 20.4797 25.1623 20.4797C25.5572 20.4797 25.8865 20.6133 26.1504 20.8804C26.4143 21.1475 26.5463 21.4786 26.5463 21.8734C26.5463 22.2683 26.4127 22.5977 26.1456 22.8616C25.8784 23.1255 25.5474 23.2574 25.1525 23.2574ZM10.1991 20.9519C10.0046 18.0075 10.8935 15.4797 12.8657 13.3686C14.8379 11.2575 17.2963 10.2019 20.2407 10.2019C22.6759 10.2019 24.7986 10.9959 26.6088 12.5839C28.419 14.1718 29.5185 16.1695 29.9074 18.5769C27.4166 18.5491 25.1365 17.8593 23.0671 16.5074C20.9977 15.1556 19.4002 13.3593 18.2746 11.1186C17.8353 13.3408 16.9004 15.32 15.4699 17.0561C14.0393 18.7922 12.2824 20.0908 10.1991 20.9519Z" fill="#1C1B1F"/>
</g>
</svg>
