<svg width="49" height="49" viewBox="0 0 49 49" fill="none" xmlns="http://www.w3.org/2000/svg">
<mask id="mask0_1694_836" style="mask-type:alpha" maskUnits="userSpaceOnUse" x="0" y="0" width="49" height="49">
<rect x="0.797852" y="0.800293" width="48" height="48" fill="#D9D9D9"/>
</mask>
<g mask="url(#mask0_1694_836)">
<path d="M26.9479 21.4503V7.80029H7.79785V37.8003L11.4979 33.8003H41.7979V7.80029H36.5979V21.4503L31.7979 18.9503L26.9479 21.4503ZM4.79785 44.8003V7.80029C4.79785 7.00029 5.09785 6.30029 5.69785 5.70029C6.29785 5.10029 6.99785 4.80029 7.79785 4.80029H41.7979C42.5979 4.80029 43.2979 5.10029 43.8979 5.70029C44.4979 6.30029 44.7979 7.00029 44.7979 7.80029V33.8003C44.7979 34.6003 44.4979 35.3003 43.8979 35.9003C43.2979 36.5003 42.5979 36.8003 41.7979 36.8003H12.7979L4.79785 44.8003Z" fill="#000000"/>
</g>
</svg>
