<svg width="41" height="41" viewBox="0 0 41 41" fill="none" xmlns="http://www.w3.org/2000/svg">
<mask id="mask0_1017_495" style="mask-type:alpha" maskUnits="userSpaceOnUse" x="0" y="0" width="41" height="41">
<rect x="0.157227" y="0.902344" width="40" height="40" fill="#D9D9D9"/>
</mask>
<g mask="url(#mask0_1017_495)">
<path d="M20.2406 27.4858L26.6572 21.0691L24.685 19.0969L21.5461 22.0969V14.458H18.7684V22.0969L15.7406 19.0969L13.7684 21.0691L20.2406 27.4858ZM7.93498 35.9024C7.17109 35.9024 6.51716 35.6304 5.97318 35.0865C5.42921 34.5425 5.15723 33.8886 5.15723 33.1247V8.68018C5.15723 7.91629 5.42921 7.26236 5.97318 6.71838C6.51716 6.17441 7.17109 5.90243 7.93498 5.90243H15.9628C16.1758 4.92095 16.6734 4.12002 17.4559 3.49963C18.2382 2.87927 19.1387 2.56909 20.1572 2.56909C21.1758 2.56909 22.0762 2.87927 22.8586 3.49963C23.641 4.12002 24.1387 4.92095 24.3516 5.90243H32.3795C33.1434 5.90243 33.7973 6.17441 34.3413 6.71838C34.8852 7.26236 35.1572 7.91629 35.1572 8.68018V33.1247C35.1572 33.8886 34.8852 34.5425 34.3413 35.0865C33.7973 35.6304 33.1434 35.9024 32.3795 35.9024H7.93498ZM7.93498 33.1247H32.3795V8.68018H7.93498V33.1247ZM20.1572 7.7913C20.5369 7.7913 20.8633 7.65473 21.1364 7.38159C21.4095 7.10843 21.5461 6.78204 21.5461 6.40243C21.5461 6.02279 21.4095 5.6964 21.1364 5.42326C20.8633 5.15009 20.5369 5.01351 20.1572 5.01351C19.7776 5.01351 19.4512 5.15009 19.1781 5.42326C18.9049 5.6964 18.7684 6.02279 18.7684 6.40243C18.7684 6.78204 18.9049 7.10843 19.1781 7.38159C19.4512 7.65473 19.7776 7.7913 20.1572 7.7913Z" fill="#1C1B1F"/>
</g>
</svg>
