<svg width="41" height="41" viewBox="0 0 41 41" fill="none" xmlns="http://www.w3.org/2000/svg">
<mask id="mask0_1018_507" style="mask-type:alpha" maskUnits="userSpaceOnUse" x="0" y="0" width="41" height="41">
<rect x="0.604492" y="0.902344" width="40" height="40" fill="#D9D9D9"/>
</mask>
<g mask="url(#mask0_1018_507)">
<path d="M23.8962 35.9023L12.549 24.1246V21.1801H18.1045C19.6508 21.1801 21.0003 20.6778 22.1531 19.6732C23.3059 18.6685 23.9841 17.319 24.1878 15.6246H10.6045V12.8468H23.8823C23.4841 11.6338 22.755 10.6361 21.6948 9.85372C20.6346 9.0713 19.4378 8.68009 18.1045 8.68009H10.6045V5.90234H30.6045V8.68009H24.5212C25.0767 9.20787 25.5536 9.8514 25.9517 10.6107C26.3499 11.3699 26.6415 12.1153 26.8267 12.8468H30.6045V15.6246H26.9795C26.7573 18.0968 25.8082 20.1037 24.1323 21.6454C22.4563 23.1871 20.4471 23.9579 18.1045 23.9579H16.2572L27.7434 35.9023H23.8962Z" fill="#1C1B1F"/>
</g>
</svg>
