<svg width="49" height="41" viewBox="0 0 49 41" fill="none" xmlns="http://www.w3.org/2000/svg">
<g clip-path="url(#clip0_1192_4089)">
<path d="M29.3101 32.6917C23.9201 32.6917 18.5401 32.6917 13.1501 32.6917C12.2601 32.6917 11.4601 32.4617 10.9701 31.7017C10.6801 31.2517 10.4801 30.6717 10.4501 30.1417C10.3801 28.8717 10.4201 27.6017 10.4301 26.3317C10.4301 25.7317 10.7101 25.4217 11.1901 25.4217C11.6701 25.4217 11.9201 25.7417 11.9201 26.3517C11.9201 27.5617 11.9201 28.7617 11.9201 29.9717C11.9201 30.8217 12.2701 31.1917 13.1101 31.1917C23.9101 31.1917 34.7201 31.1917 45.5201 31.1917C46.3501 31.1917 46.7201 30.8217 46.7201 29.9817C46.7201 23.4817 46.7201 16.9917 46.7201 10.4917C46.7201 9.61173 46.3701 9.27173 45.4901 9.27173C34.7001 9.27173 23.9101 9.27173 13.1301 9.27173C12.2501 9.27173 11.9201 9.62173 11.9201 10.5117C11.9201 11.9117 11.9201 13.3117 11.9201 14.7117C11.9201 15.2417 11.6501 15.5417 11.2001 15.5617C10.7601 15.5817 10.4401 15.3017 10.4401 14.8117C10.4301 13.2217 10.4001 11.6217 10.4601 10.0417C10.5101 8.79173 11.5301 7.86173 12.8001 7.77173C12.9001 7.77173 12.9901 7.77173 13.0901 7.77173C23.9101 7.77173 34.7301 7.77173 45.5501 7.77173C46.8701 7.77173 47.8401 8.48173 48.1401 9.65173C48.2101 9.91173 48.2201 10.1917 48.2201 10.4617C48.2201 16.9717 48.2201 23.4917 48.2201 30.0017C48.2201 31.6917 47.2101 32.7017 45.5201 32.7017C40.1201 32.7017 34.7201 32.7017 29.3101 32.7017V32.6917Z" fill="black" stroke="black" stroke-width="0.5" stroke-miterlimit="10"/>
<path d="M29.3501 11.1218C32.8401 11.1218 36.3301 11.1218 39.8201 11.1218C40.6701 11.1218 40.8201 11.2518 40.9001 12.1018C41.0701 13.7918 42.2801 14.9718 43.9601 15.0818C44.6501 15.1218 44.8601 15.3318 44.8601 16.0018C44.8601 18.8018 44.8601 21.6018 44.8601 24.3918C44.8601 25.0318 44.6401 25.2418 43.9901 25.2918C42.2501 25.4118 41.0501 26.5918 40.9001 28.3418C40.8401 29.0518 40.6401 29.2518 39.9501 29.2518C32.9101 29.2518 25.8701 29.2518 18.8201 29.2518C18.0901 29.2518 17.8801 29.0418 17.8301 28.3118C17.7301 26.6518 16.4801 25.3718 14.8101 25.2118C14.0401 25.1418 13.8701 24.9518 13.8701 24.1818C13.8701 21.4918 13.8701 18.8118 13.8701 16.1218C13.8701 15.3218 14.0601 15.1218 14.8501 15.0818C16.4701 14.9818 17.7301 13.7218 17.8301 12.0918C17.8801 11.3318 18.0901 11.1318 18.8401 11.1318C22.3401 11.1318 25.8501 11.1318 29.3501 11.1318V11.1218ZM39.3801 12.7218H19.3201C19.3201 12.7218 19.2701 12.7718 19.2601 12.8018C19.2201 12.9418 19.1901 13.0818 19.1501 13.2218C18.6401 14.9318 17.5301 16.0418 15.8101 16.4918C15.4401 16.5918 15.3701 16.7418 15.3701 17.0718C15.3801 18.7318 15.3701 20.3818 15.3701 22.0418C15.3701 22.6318 15.3701 23.2318 15.3701 23.8318C17.5201 24.2918 18.8101 25.6018 19.2701 27.7018H39.3701C39.8401 25.5518 41.1501 24.2818 43.2701 23.8218C43.2701 21.4918 43.2701 19.1918 43.2601 16.8918C43.2601 16.7718 43.0901 16.5918 42.9501 16.5318C42.5301 16.3418 42.0601 16.2418 41.6601 16.0118C40.3701 15.2918 39.6501 14.1518 39.3701 12.7118L39.3801 12.7218Z" fill="black" stroke="black" stroke-width="0.5" stroke-miterlimit="10"/>
<path d="M4.81029 17.7117C3.59029 17.7117 2.37029 17.7117 1.15029 17.7117C0.760287 17.7117 0.450287 17.5817 0.350287 17.1717C0.220287 16.6517 0.530287 16.2417 1.08029 16.2317C3.57029 16.2317 6.06029 16.2317 8.54029 16.2317C9.02029 16.2317 9.30029 16.5417 9.29029 16.9817C9.29029 17.4017 9.01029 17.6917 8.55029 17.7017C7.30029 17.7117 6.05029 17.7017 4.79029 17.7017L4.81029 17.7117Z" fill="black" stroke="black" stroke-width="0.5" stroke-miterlimit="10"/>
<path d="M4.78987 24.1516C3.59987 24.1516 2.40987 24.1516 1.22987 24.1516C0.619868 24.1516 0.339868 23.9016 0.349868 23.3916C0.349868 22.9016 0.619868 22.6716 1.22987 22.6716C3.63987 22.6716 6.04987 22.6716 8.44987 22.6716C9.01987 22.6716 9.31987 22.9416 9.31987 23.4116C9.31987 23.8816 9.00987 24.1516 8.45987 24.1616C7.23987 24.1616 6.01987 24.1616 4.79987 24.1616L4.78987 24.1516Z" fill="black" stroke="black" stroke-width="0.5" stroke-miterlimit="10"/>
<path d="M8.9101 20.9416C8.0301 20.9416 7.1401 20.9416 6.2601 20.9416C5.6401 20.9416 5.3501 20.6916 5.3501 20.1916C5.3501 19.7116 5.6701 19.4316 6.2601 19.4316C8.0401 19.4316 9.8201 19.4316 11.6101 19.4316C12.2201 19.4316 12.5101 19.6816 12.5101 20.1816C12.5101 20.6816 12.2201 20.9316 11.6101 20.9316C10.7101 20.9316 9.8101 20.9316 8.9101 20.9316V20.9416Z" fill="black" stroke="black" stroke-width="0.5" stroke-miterlimit="10"/>
<path d="M22.7303 0.501699C23.6503 0.501699 24.5603 0.501699 25.4803 0.501699C26.0503 0.501699 26.3603 0.751699 26.3703 1.2217C26.3803 1.7017 26.0703 1.9817 25.4703 1.9817C23.6203 1.9817 21.7703 1.9817 19.9203 1.9817C19.3003 1.9817 19.0303 1.7317 19.0403 1.2117C19.0503 0.731699 19.3303 0.501699 19.9203 0.491699C20.8503 0.491699 21.7903 0.491699 22.7203 0.491699L22.7303 0.501699Z" fill="black" stroke="black" stroke-width="0.5" stroke-miterlimit="10"/>
<path d="M17.9901 39.8716C17.0601 39.8716 16.1301 39.8716 15.2001 39.8716C14.6301 39.8716 14.3401 39.6216 14.3301 39.1416C14.3301 38.6416 14.5901 38.3916 15.1701 38.3916C17.0501 38.3916 18.9201 38.3916 20.8001 38.3916C21.3601 38.3916 21.6601 38.6816 21.6501 39.1416C21.6501 39.6116 21.3301 39.8716 20.7701 39.8716C19.8401 39.8716 18.9101 39.8716 17.9801 39.8716H17.9901Z" fill="black" stroke="black" stroke-width="0.5" stroke-miterlimit="10"/>
<path d="M34.1099 3.58179C35.0399 3.58179 35.9699 3.58179 36.8999 3.58179C37.4599 3.58179 37.7599 3.86179 37.7499 4.34179C37.7399 4.80179 37.4499 5.06179 36.9099 5.06179C35.0299 5.06179 33.1599 5.06179 31.2799 5.06179C30.7499 5.06179 30.4199 4.75179 30.4299 4.29179C30.4299 3.83179 30.7099 3.59179 31.2699 3.59179C32.2199 3.59179 33.1599 3.59179 34.1099 3.59179V3.58179Z" fill="black" stroke="black" stroke-width="0.5" stroke-miterlimit="10"/>
<path d="M29.0699 36.8018C28.1399 36.8018 27.2099 36.8018 26.2799 36.8018C25.6899 36.8018 25.4199 36.5618 25.4199 36.0718C25.4199 35.5718 25.6799 35.3318 26.2699 35.3318C28.1299 35.3318 29.9899 35.3318 31.8499 35.3318C32.3699 35.3318 32.7299 35.6418 32.7399 36.0718C32.7499 36.5318 32.4299 36.8018 31.8699 36.8018C30.9399 36.8018 30.0099 36.8018 29.0799 36.8018H29.0699Z" fill="black" stroke="black" stroke-width="0.5" stroke-miterlimit="10"/>
<path d="M28.5301 4.33176C28.5301 4.73176 28.2001 5.05176 27.7901 5.05176C27.3901 5.05176 27.0601 4.72176 27.0601 4.33176C27.0601 3.90176 27.4001 3.57176 27.8201 3.58176C28.2201 3.59176 28.5401 3.93176 28.5301 4.33176Z" fill="black" stroke="black" stroke-width="0.5" stroke-miterlimit="10"/>
<path d="M16.3799 1.98172C15.9799 1.99172 15.6299 1.67172 15.5999 1.29172C15.5799 0.881719 15.9299 0.511719 16.3399 0.511719C16.7299 0.511719 17.0799 0.841719 17.0899 1.23172C17.0899 1.63172 16.7799 1.97172 16.3799 1.98172Z" fill="black" stroke="black" stroke-width="0.5" stroke-miterlimit="10"/>
<path d="M23.4402 36.0616C23.4402 36.4716 23.1102 36.7916 22.7102 36.8016C22.2902 36.8016 21.9502 36.4616 21.9602 36.0416C21.9702 35.6416 22.2902 35.3616 22.7402 35.3716C23.1502 35.3716 23.4402 35.6716 23.4402 36.0616Z" fill="black" stroke="black" stroke-width="0.5" stroke-miterlimit="10"/>
<path d="M11.6702 38.3618C12.1202 38.3618 12.4302 38.6318 12.4302 39.0418C12.4302 39.4518 12.1202 39.7818 11.7202 39.7918C11.3002 39.8018 10.9502 39.4618 10.9602 39.0418C10.9602 38.6418 11.2602 38.3618 11.6702 38.3618Z" fill="black" stroke="black" stroke-width="0.5" stroke-miterlimit="10"/>
<path d="M29.3403 25.7917C26.2403 25.7917 23.7403 23.2517 23.7703 20.1517C23.8003 17.0317 26.2903 14.5617 29.4103 14.5817C32.4603 14.5917 34.9903 17.1417 34.9903 20.1917C34.9903 23.2617 32.4303 25.8017 29.3503 25.7917H29.3403ZM33.4703 20.1917C33.4703 17.9417 31.6003 16.0617 29.3603 16.0717C27.1003 16.0717 25.2503 17.9217 25.2403 20.1817C25.2403 22.4117 27.1103 24.3017 29.3503 24.3117C31.5803 24.3117 33.4603 22.4417 33.4603 20.1917H33.4703Z" fill="black" stroke="black" stroke-width="0.5" stroke-miterlimit="10"/>
</g>
<defs>
<clipPath id="clip0_1192_4089">
<rect width="48.39" height="39.87" fill="white" transform="translate(0.0800781 0.251709)"/>
</clipPath>
</defs>
</svg>
