<svg width="49" height="49" viewBox="0 0 49 49" fill="none" xmlns="http://www.w3.org/2000/svg">
<mask id="mask0_1712_488" style="mask-type:alpha" maskUnits="userSpaceOnUse" x="0" y="0" width="49" height="49">
<rect x="0.916992" y="0.877441" width="48" height="48" fill="#D9D9D9"/>
</mask>
<g mask="url(#mask0_1712_488)">
<path d="M43.417 26.3775H38.917C38.492 26.3775 38.1358 26.2329 37.8485 25.9435C37.5608 25.6545 37.417 25.2962 37.417 24.8685C37.417 24.4412 37.5608 24.0859 37.8485 23.8025C38.1358 23.5192 38.492 23.3775 38.917 23.3775H43.417C43.842 23.3775 44.1983 23.5222 44.486 23.8115C44.7733 24.1005 44.917 24.4589 44.917 24.8865C44.917 25.3139 44.7733 25.6692 44.486 25.9525C44.1983 26.2359 43.842 26.3775 43.417 26.3775ZM34.767 35.1775C35.0337 34.8442 35.3642 34.6442 35.7585 34.5775C36.1525 34.5109 36.522 34.6109 36.867 34.8775L40.517 37.5775C40.8503 37.8442 41.0503 38.1747 41.117 38.569C41.1837 38.963 41.0837 39.3325 40.817 39.6775C40.5503 40.0109 40.2198 40.2109 39.8255 40.2775C39.4315 40.3442 39.062 40.2442 38.717 39.9775L35.067 37.2775C34.7337 37.0109 34.5337 36.6804 34.467 36.286C34.4003 35.892 34.5003 35.5225 34.767 35.1775ZM40.517 12.1775L37.017 14.8275C36.672 15.0942 36.3025 15.1942 35.9085 15.1275C35.5142 15.0609 35.1837 14.8609 34.917 14.5275C34.6503 14.1942 34.5503 13.8275 34.617 13.4275C34.6837 13.0275 34.8837 12.6942 35.217 12.4275L38.717 9.77752C39.062 9.51085 39.4315 9.41085 39.8255 9.47752C40.2198 9.54419 40.5503 9.74419 40.817 10.0775C41.0837 10.4109 41.1837 10.7775 41.117 11.1775C41.0503 11.5775 40.8503 11.9109 40.517 12.1775ZM11.417 30.8775H7.91699C7.09199 30.8775 6.38583 30.5837 5.79849 29.996C5.21083 29.4087 4.91699 28.7025 4.91699 27.8775V21.8775C4.91699 21.0525 5.21083 20.3462 5.79849 19.7585C6.38583 19.1712 7.09199 18.8775 7.91699 18.8775H16.917L24.667 14.2275C25.167 13.9275 25.667 13.9265 26.167 14.2245C26.667 14.5222 26.917 14.9565 26.917 15.5275V34.2275C26.917 34.7985 26.667 35.2329 26.167 35.5305C25.667 35.8285 25.167 35.8275 24.667 35.5275L16.917 30.8775H14.417V37.3775C14.417 37.8025 14.2723 38.1587 13.983 38.446C13.694 38.7337 13.3357 38.8775 12.908 38.8775C12.4807 38.8775 12.1253 38.7337 11.842 38.446C11.5587 38.1587 11.417 37.8025 11.417 37.3775V30.8775ZM23.917 31.5775V18.1775L17.717 21.8775H7.91699V27.8775H17.717L23.917 31.5775ZM28.917 31.5775V18.1775C29.817 18.9775 30.542 19.9525 31.092 21.1025C31.642 22.2525 31.917 23.5109 31.917 24.8775C31.917 26.2442 31.642 27.5025 31.092 28.6525C30.542 29.8025 29.817 30.7775 28.917 31.5775Z" fill="#000000"/>
</g>
</svg>
