<svg width="38" height="39" viewBox="0 0 38 39" fill="none" xmlns="http://www.w3.org/2000/svg">
<g clip-path="url(#clip0_1157_438)">
<rect x="-18.5454" y="-16.3394" width="71.6411" height="71.6411" rx="10" fill="#fff"/>
<path d="M0.893252 38.4812C0.830791 38.4456 0.769322 38.4079 0.705869 38.3753C0.168508 38.1002 -0.0991818 37.5648 0.0336715 37.0265C0.170491 36.4703 0.625563 36.1101 1.22836 36.1082C2.74923 36.1022 4.2701 36.1062 5.79197 36.1062C6.93808 36.1062 8.08517 36.1062 9.3106 36.1062C9.19063 35.9775 9.10537 35.9102 9.05183 35.8241C8.6959 35.2512 8.30131 34.696 8.0128 34.0904C7.874 33.7985 7.74709 33.7243 7.45363 33.7243C6.7378 33.7243 6.01207 33.7559 5.30914 33.652C3.6564 33.4076 2.40024 31.946 2.38636 30.2666C2.36356 27.4721 2.37546 24.6765 2.38042 21.8819C2.38141 21.1862 2.90291 20.6687 3.56717 20.6697C4.22747 20.6707 4.74798 21.1922 4.74996 21.8869C4.75591 24.5706 4.75195 27.2544 4.75294 29.9381C4.75294 30.9158 5.1971 31.3552 6.18557 31.3562C6.65551 31.3562 7.12546 31.3463 7.5954 31.3601C7.80063 31.3661 7.89085 31.3067 7.96025 31.1009C8.63344 29.095 10.4012 27.8006 12.4535 27.7937C14.5226 27.7868 16.2993 29.0772 16.9844 31.0999C17.0448 31.278 17.1073 31.3601 17.3105 31.3601C19.4372 31.3532 21.5638 31.3562 23.7519 31.3562V30.9584C23.7519 26.0114 23.7519 21.0645 23.7519 16.1176C23.7519 15.1874 23.2949 14.7332 22.3629 14.7312C21.8434 14.7312 21.3239 14.7381 20.8044 14.7292C20.1134 14.7163 19.5928 14.1958 19.5978 13.5348C19.6018 12.8856 20.1114 12.3611 20.7826 12.3611C21.5847 12.3611 22.3976 12.3235 23.1868 12.4344C24.8425 12.6669 26.0838 14.1305 26.1195 15.8118C26.1423 16.8875 26.1255 17.9632 26.1264 19.0398C26.1264 19.1734 26.1264 19.306 26.1264 19.4812C26.3009 19.4812 26.4447 19.4792 26.5885 19.4812C27.9596 19.5029 29.3387 19.4446 30.702 19.5653C34.1958 19.875 37.2574 22.7814 37.8542 26.2559C37.8998 26.5221 37.9514 26.7863 38.001 27.0515V30.6882C37.9772 30.7426 37.9444 30.7941 37.9316 30.8505C37.5945 32.3774 36.5049 33.4521 34.9671 33.6688C34.3634 33.7539 33.7378 33.6827 33.1082 33.6827C32.8544 34.6406 32.3755 35.4016 31.6508 36.1062H32.0969C33.5553 36.1062 35.0137 36.1309 36.4721 36.0953C37.2019 36.0775 37.7115 36.3229 38.0019 36.9968V37.5906C37.8255 38.0082 37.528 38.304 37.1116 38.4812H0.893252ZM26.1383 28.4171C27.5512 27.6828 28.9531 27.575 30.3698 28.1806C31.7886 28.7872 32.671 29.8847 33.1082 31.3562C33.5514 31.3562 33.9707 31.3611 34.3911 31.3552C35.1268 31.3433 35.6185 30.8515 35.6245 30.1123C35.6314 29.284 35.6364 28.4547 35.6215 27.6264C35.5719 24.9417 33.6059 22.5439 30.9726 22.0086C29.3962 21.6879 27.7911 21.9057 26.1998 21.869C26.181 21.869 26.1621 21.8977 26.1393 21.9165V28.4181L26.1383 28.4171ZM25.3432 36.0923C24.672 35.4432 24.2209 34.7485 23.9572 33.9311C23.9274 33.84 23.747 33.7411 23.6359 33.7401C21.5351 33.7292 19.4352 33.7351 17.3343 33.7272C17.1212 33.7272 17.0528 33.8064 16.9764 33.9974C16.8118 34.4071 16.6225 34.8128 16.3925 35.1888C16.1991 35.5055 15.9324 35.7776 15.6796 36.0933H25.3432V36.0923ZM12.4792 30.1697C11.1656 30.1677 10.0988 31.2325 10.0968 32.5457C10.0948 33.84 11.1527 34.9088 12.4436 34.9187C13.7592 34.9296 14.8359 33.8717 14.8438 32.5615C14.8518 31.2483 13.7879 30.1716 12.4783 30.1697H12.4792ZM28.5049 30.1697C27.1932 30.1657 26.1245 31.2345 26.1264 32.5476C26.1284 33.844 27.1813 34.9068 28.4762 34.9187C29.7878 34.9306 30.8705 33.8648 30.8745 32.5585C30.8784 31.2444 29.8156 30.1726 28.5049 30.1697Z" fill="black"/>
<path d="M9.79935 0.481201C11.224 1.0987 12.6468 1.71917 14.0735 2.33469C15.4109 2.91162 16.7474 3.49151 18.0918 4.05063C18.7313 4.31683 19.0217 4.75917 19.0059 5.45683C18.9335 8.62943 18.3535 11.6734 16.7127 14.4383C15.1452 17.0795 12.8817 18.7875 9.8509 19.4288C9.16978 19.5732 8.55509 19.3011 7.94436 19.0953C4.82231 18.0463 2.79084 15.8415 1.49701 12.8926C0.431209 10.4681 0.0167864 7.90703 0.00588056 5.27276C0.00290624 4.68495 0.313228 4.31584 0.846624 4.08823C3.5949 2.91657 6.33921 1.735 9.08452 0.557399C9.12715 0.538597 9.16482 0.50693 9.20547 0.481201C9.40376 0.481201 9.60106 0.481201 9.79935 0.481201ZM16.5768 6.61365C16.5104 6.37813 16.792 6.07235 16.3706 5.89521C14.1538 4.96006 11.9458 4.00412 9.73094 3.06599C9.60998 3.01453 9.43251 3.00266 9.31552 3.05214C7.07784 3.99917 4.84313 4.95511 2.61337 5.92292C2.51522 5.96547 2.40616 6.13667 2.41211 6.24256C2.5291 8.26526 2.87908 10.2395 3.71586 12.1019C4.81636 14.5501 6.55039 16.2987 9.21043 16.9954C9.40178 17.0458 9.62981 17.0419 9.82116 16.9914C11.9488 16.4323 13.542 15.1597 14.6663 13.2894C15.8987 11.239 16.3786 8.97084 16.5768 6.61464V6.61365Z" fill="black"/>
<path d="M8.95183 10.7541C10.096 9.77438 11.1776 8.83526 12.2741 7.91297C12.982 7.31823 13.9943 7.63688 14.2134 8.51266C14.3245 8.95698 14.2085 9.36172 13.8664 9.65859C12.4665 10.8738 11.0616 12.0831 9.64484 13.2785C9.1749 13.6753 8.53145 13.6387 8.09026 13.2082C7.2753 12.4146 6.46925 11.613 5.67908 10.7946C5.22499 10.3256 5.25672 9.60615 5.70684 9.1549C6.15695 8.70464 6.87475 8.67495 7.34668 9.1262C7.88999 9.64573 8.40455 10.1969 8.95183 10.7541Z" fill="black"/>
</g>
<defs>
<clipPath id="clip0_1157_438">
<rect width="38" height="38" fill="white" transform="translate(0 0.481201)"/>
</clipPath>
</defs>
</svg>
